<?xml version="1.0" encoding="UTF-8"?>
<svg version="1.1" xmlns="http://www.w3.org/2000/svg" width="301" height="301">
<path d="M0 0 C3 1 3 1 4.82421875 4.2734375 C5.45611238 5.63566713 6.07679335 7.00314123 6.6875 8.375 C7.00783203 9.06078125 7.32816406 9.7465625 7.65820312 10.453125 C9.02865252 13.45700982 10 15.66226916 10 19 C10.81404297 18.58427734 10.81404297 18.58427734 11.64453125 18.16015625 C12.35996094 17.79792969 13.07539063 17.43570313 13.8125 17.0625 C14.52019531 16.70285156 15.22789062 16.34320313 15.95703125 15.97265625 C18 15 18 15 21 14 C23.45489316 19.12325529 24.50341703 23.33895411 25 29 C27.97 28.34 30.94 27.68 34 27 C33.67 31.29 33.34 35.58 33 40 C34.24394531 40.49628906 35.48789063 40.99257812 36.76953125 41.50390625 C64.03008043 52.55451704 84.10099246 69.61503773 96 97 C105.85515046 123.68968617 104.47970148 153.34871109 92.8515625 179.19140625 C82.04043821 202.0192933 62.65281938 219.94179579 38.98339844 228.75048828 C11.73072216 238.1899984 -19.68808793 237.67378716 -45.90234375 225.1796875 C-53.65874086 221.31450465 -60.57265768 216.85602301 -67 211 C-67.97710937 210.11570313 -68.95421875 209.23140625 -69.9609375 208.3203125 C-89.99093841 189.58450912 -99.57984281 163.87639268 -101.1875 136.84765625 C-101.73362637 111.41864698 -93.31651335 86.7443662 -76 68 C-75.32710937 67.23558594 -74.65421875 66.47117187 -73.9609375 65.68359375 C-63.36825699 54.27761754 -48.71010506 45.90336835 -34 41 C-34.01160156 40.36191406 -34.02320312 39.72382812 -34.03515625 39.06640625 C-34.04417969 38.24011719 -34.05320312 37.41382813 -34.0625 36.5625 C-34.07410156 35.73878906 -34.08570312 34.91507813 -34.09765625 34.06640625 C-34 32 -34 32 -33 31 C-31.48071962 30.92820036 -29.95832518 30.91607993 -28.4375 30.9375 C-27.61121094 30.94652344 -26.78492187 30.95554687 -25.93359375 30.96484375 C-24.97646484 30.98224609 -24.97646484 30.98224609 -24 31 C-24.01160156 30.09636719 -24.02320312 29.19273438 -24.03515625 28.26171875 C-24.04417969 27.08222656 -24.05320312 25.90273438 -24.0625 24.6875 C-24.07410156 23.51574219 -24.08570312 22.34398437 -24.09765625 21.13671875 C-24 18 -24 18 -23 15 C-19.33118845 15.70554068 -16.29549466 17.27735506 -13 19 C-12.9175 18.13375 -12.835 17.2675 -12.75 16.375 C-11.19150192 9.36175866 -5.97179372 3.83813436 0 0 Z M-6 12 C-9.18791596 18.26590378 -9.61062604 24.02477183 -9 31 C-8.67 31.66 -8.34 32.32 -8 33 C-13.75 30.375 -13.75 30.375 -16 27 C-16.66 27 -17.32 27 -18 27 C-19.13016601 32.02296004 -18.77916092 35.97874074 -18 41 C-18.763125 40.67 -19.52625 40.34 -20.3125 40 C-22.99069135 38.82563314 -22.99069135 38.82563314 -26 39 C-25.51640765 45.20778812 -25.51640765 45.20778812 -22 50 C-18.93820425 50.69333886 -15.89608393 50.72810054 -12.765625 50.77734375 C-11.39854401 50.80798668 -11.39854401 50.80798668 -10.00384521 50.83924866 C-8.07401332 50.87265142 -6.14395447 50.89460518 -4.21386719 50.90600586 C-1.2713884 50.93727273 1.66127415 51.04835703 4.6015625 51.16210938 C14.42370091 51.64423257 14.42370091 51.64423257 22.92382812 47.59033203 C24.83246002 44.71648584 26.14040664 42.33841361 27 39 C26.505 37.515 26.505 37.515 26 36 C23.36 37.65 20.72 39.3 18 41 C18.33 39.68 18.66 38.36 19 37 C19.0926304 34.79321686 19.12998583 32.58372075 19.125 30.375 C19.12757813 29.22773437 19.13015625 28.08046875 19.1328125 26.8984375 C19.19920447 24.06023956 19.19920447 24.06023956 18 22 C14.18447383 23.49895671 12.46254954 25.7986856 10 29 C9.01 29.495 9.01 29.495 8 30 C7.95101562 29.38511719 7.90203125 28.77023438 7.8515625 28.13671875 C7.77679688 27.32847656 7.70203125 26.52023438 7.625 25.6875 C7.52058594 24.48673828 7.52058594 24.48673828 7.4140625 23.26171875 C7.10435574 20.72775559 7.10435574 20.72775559 5 18 C4.34 18 3.68 18 3 18 C1.515 13.05 1.515 13.05 0 8 C-2.51151521 8 -4.34390533 10.42276698 -6 12 Z M-61.84765625 74.7578125 C-79.44247045 93.08707448 -85.59597516 115.08583558 -85.26953125 139.8046875 C-84.55191154 163.01597329 -73.32333501 183.67627617 -56.79296875 199.6171875 C-39.12106161 214.69391947 -16.21191342 221.70438683 6.91894531 220.18017578 C28.85240061 218.2811976 47.18512921 210.55084957 63 195 C63.69996094 194.31292969 64.39992187 193.62585938 65.12109375 192.91796875 C80.81907679 176.42437643 87.57503605 153.66459298 87.41723633 131.31787109 C86.89373854 112.04588632 80.2692285 93.2333407 67 79 C66.33613281 78.24589844 65.67226562 77.49179688 64.98828125 76.71484375 C55.85726618 66.87495135 43.5149107 59.71388808 31 55 C30.01 55 29.02 55 28 55 C26.10667703 60.32497086 25.86968242 64.80829597 26.125 70.44921875 C25.99207024 73.16181656 25.38344344 74.69245958 24 77 C24.5775 76.855625 25.155 76.71125 25.75 76.5625 C26.86375 76.2840625 26.86375 76.2840625 28 76 C28.6084375 75.773125 29.216875 75.54625 29.84375 75.3125 C32.83913233 74.87838662 34.19164278 75.89496109 36.75 77.4375 C37.54921875 77.91058594 38.3484375 78.38367188 39.171875 78.87109375 C39.77515625 79.24363281 40.3784375 79.61617187 41 80 C40.73574219 80.89203125 40.47148437 81.7840625 40.19921875 82.703125 C39.62058384 86.10548427 39.62058384 86.10548427 42.01953125 88.484375 C42.94121094 89.23203125 43.86289063 89.9796875 44.8125 90.75 C46.18341797 91.88695313 46.18341797 91.88695313 47.58203125 93.046875 C48.37996094 93.69140625 49.17789063 94.3359375 50 95 C50.66 95.66 51.32 96.32 52 97 C52.9075 96.855625 53.815 96.71125 54.75 96.5625 C58 97 58 97 59.7265625 98.92578125 C64 105.27517773 64 105.27517773 64 108 C63.01 108.66 62.02 109.32 61 110 C61.45382336 114.17517494 62.181002 118.2332228 63.1875 122.3125 C63.48720703 123.57513672 63.48720703 123.57513672 63.79296875 124.86328125 C65.13042916 127.78843759 65.13042916 127.78843759 71 129 C71 133.62 71 138.24 71 143 C69.35 143 67.7 143 66 143 C62.6209852 151.27030552 62.6209852 151.27030552 61 160 C61.99 161.485 61.99 161.485 63 163 C63.66 163 64.32 163 65 163 C62.69 166.96 60.38 170.92 58 175 C55.03 174.505 55.03 174.505 52 174 C49.62439985 175.61847339 48.00420025 176.96683338 46.0625 179 C45.30356445 179.70576172 45.30356445 179.70576172 44.52929688 180.42578125 C42.84603389 182.03936091 42.84603389 182.03936091 41 185 C41.0456418 188.78714832 41.0456418 188.78714832 42 192 C41.34 192.2475 40.68 192.495 40 192.75 C36.23639093 194.31817045 32.6288576 196.14505046 29 198 C28.34 196.68 27.68 195.36 27 194 C18.38780686 195.5668635 18.38780686 195.5668635 10 198 C7.7226499 200.81509993 7.7226499 200.81509993 8 204 C3.38 204 -1.24 204 -6 204 C-6.33 202.02 -6.66 200.04 -7 198 C-9.24623699 197.30030318 -11.49716414 196.61564957 -13.75 195.9375 C-15.00296875 195.55464844 -16.2559375 195.17179688 -17.546875 194.77734375 C-21.68527244 193.84573618 -23.42328111 194.02632898 -26.9609375 196.2109375 C-29 197 -29 197 -31.2890625 196.1015625 C-32.05992188 195.61429688 -32.83078125 195.12703125 -33.625 194.625 C-36.60091869 192.59522973 -36.60091869 192.59522973 -40 192 C-39.649375 191.4225 -39.29875 190.845 -38.9375 190.25 C-37.80218617 187.5252468 -37.95396922 186.71968002 -39 184 C-40.73561134 182.11777099 -40.73561134 182.11777099 -42.875 180.4375 C-46.93392125 177.07503572 -46.93392125 177.07503572 -48.52734375 175.265625 C-49.01332031 174.84796875 -49.49929687 174.4303125 -50 174 C-53.64541845 174.23477199 -53.64541845 174.23477199 -57 175 C-57.268125 174.278125 -57.53625 173.55625 -57.8125 172.8125 C-58.94032684 169.95320276 -58.94032684 169.95320276 -60.625 167.3125 C-62 165 -62 165 -62 163 C-60.515 162.01 -60.515 162.01 -59 161 C-59.50697222 157.02871764 -60.13145336 153.10983719 -60.9375 149.1875 C-61.09089844 148.43855469 -61.24429688 147.68960938 -61.40234375 146.91796875 C-61.9034882 144.7866944 -61.9034882 144.7866944 -64 143 C-65.32 143 -66.64 143 -68 143 C-68.495 136.07 -68.495 136.07 -69 129 C-66.03 128.505 -66.03 128.505 -63 128 C-62.52715056 126.311252 -62.05437649 124.62248285 -61.58203125 122.93359375 C-61.07279597 121.24183896 -60.45122415 119.58473596 -59.8125 117.9375 C-58.88172533 114.57239158 -59.19878432 112.36510584 -60 109 C-60.66 109 -61.32 109 -62 109 C-61.03149955 106.64792747 -60.0322266 104.32371011 -59 102 C-58.5875 101.030625 -58.175 100.06125 -57.75 99.0625 C-56.88375 98.0415625 -56.88375 98.0415625 -56 97 C-54.906875 97.04125 -53.81375 97.0825 -52.6875 97.125 C-49.11786841 97.38498114 -49.11786841 97.38498114 -47.38671875 95.63671875 C-46.36786149 94.407245 -45.38095752 93.15066951 -44.42578125 91.87109375 C-43 90 -43 90 -40.0625 87.375 C-39.381875 86.59125 -38.70125 85.8075 -38 85 C-38.31223332 82.38037137 -38.31223332 82.38037137 -39 80 C-37.61518672 79.12808053 -36.21654754 78.27809616 -34.8125 77.4375 C-34.03519531 76.96183594 -33.25789063 76.48617187 -32.45703125 75.99609375 C-29.51639033 74.80394203 -27.99553637 75.11144836 -25 76 C-25.185625 74.845 -25.37125 73.69 -25.5625 72.5 C-25.95467611 69.46466436 -25.95512078 66.83703686 -25.5 63.8125 C-25.05420945 60.41334705 -25.08534924 58.25209158 -26 55 C-38.61580714 55 -53.13511609 66.65971912 -61.84765625 74.7578125 Z M-21 55 C-21.33 55.66 -21.66 56.32 -22 57 C-20.41971982 60.13589586 -20.41971982 60.13589586 -18.20297241 60.36076355 C-17.47905304 60.35410172 -16.75513367 60.34743988 -16.00927734 60.34057617 C-14.77822769 60.34023628 -14.77822769 60.34023628 -13.52230835 60.33988953 C-12.63580597 60.32440567 -11.74930359 60.30892181 -10.8359375 60.29296875 C-9.47512558 60.28660149 -9.47512558 60.28660149 -8.08682251 60.28010559 C-5.18258268 60.26328133 -2.2790309 60.2256226 0.625 60.1875 C2.59113583 60.17245799 4.55728251 60.15876875 6.5234375 60.14648438 C11.34922439 60.11336557 16.17449545 60.06155786 21 60 C21.33 58.35 21.66 56.7 22 55 C7.81 55 -6.38 55 -21 55 Z M-20 64 C-20 65.32 -20 66.64 -20 68 C-6.47 68 7.06 68 21 68 C21 66.68 21 65.36 21 64 C7.47 64 -6.06 64 -20 64 Z M-14 77 C-16.49310643 80.73965964 -16.0603261 82.29070641 -15.625 86.6875 C-15.41875 88.770625 -15.2125 90.85375 -15 93 C-10.71 92.01 -6.42 91.02 -2 90 C-2 85.71 -2 81.42 -2 77 C-3.65 77 -5.3 77 -7 77 C-7 79.97 -7 82.94 -7 86 C-7.99 86 -8.98 86 -10 86 C-10 83.03 -10 80.06 -10 77 C-11.32 77 -12.64 77 -14 77 Z M4 77 C4 81.29 4 85.58 4 90 C8.29 90.99 12.58 91.98 17 93 C17.84634488 87.92193071 18.17765417 83.15197086 18 78 C17.67 77.67 17.34 77.34 17 77 C15.35 77 13.7 77 12 77 C12 80.3 12 83.6 12 87 C11.34 86.67 10.68 86.34 10 86 C9.5859375 83.93359375 9.5859375 83.93359375 9.375 81.4375 C9.30023438 80.61121094 9.22546875 79.78492187 9.1484375 78.93359375 C9.09945312 78.29550781 9.05046875 77.65742187 9 77 C7.35 77 5.7 77 4 77 Z M-38.67578125 99.515625 C-49.20948603 110.77518171 -53.43318323 124.0471619 -53.2734375 139.20703125 C-52.19569803 154.15681727 -45.26213576 165.60489314 -34.609375 175.7734375 C-27.38260269 181.93999471 -18.69186224 187 -9 187 C-9.495 182.545 -9.495 182.545 -10 178 C-11.14275391 177.58041016 -11.14275391 177.58041016 -12.30859375 177.15234375 C-24.65906678 172.35709142 -34.14074714 165.48010656 -39.8125 153.3125 C-44.29749709 143.05071054 -45.02867604 129.71038674 -41.5 119 C-37.38220649 109.72776566 -31.66329894 102.7605097 -23.1015625 97.33984375 C-20.89623205 96.0403047 -20.89623205 96.0403047 -19 94 C-19.32326553 90.40320934 -19.32326553 90.40320934 -20 87 C-26.1742471 87 -34.47302575 95.58337652 -38.67578125 99.515625 Z M22 88 C21.16046733 91.19904988 21.16046733 91.19904988 22 95 C24.29605762 97.01980611 26.7483994 98.5556564 29.328125 100.1953125 C37.83135563 105.93872266 43.62252896 115.75263812 45.71875 125.75 C47.61101805 140.8881444 43.99798837 152.40150656 35.12890625 164.56640625 C29.19225321 171.35270872 20.36259349 175.07944132 12 178 C12 180.97 12 183.94 12 187 C24.14323435 185.76561785 34.96519675 179.01220329 43 170 C53.09811461 156.710959 56.26349738 143.40428999 55 127 C52.49214858 112.73848349 44.11564911 100.40344582 32.30859375 92.109375 C27.50374526 88.94263362 27.50374526 88.94263362 22 88 Z M-30.3125 109.3125 C-38.37005181 119.4302213 -40.32296977 130.41210911 -39 143 C-36.42230468 153.83889445 -29.45681266 162.0643833 -20.5 168.4375 C-10.42623215 174.53705412 0.65017291 175.82684721 12.16015625 173.30859375 C23.37500614 169.53876376 32.6411735 162.55028394 38.3125 152.0625 C43.22434485 141.26908985 42.96271309 131.19162285 39.25390625 120.078125 C35.30616037 110.38708526 26.55580259 101.99972606 17.0234375 97.7421875 C-0.10197531 91.46066543 -17.85696198 95.90857076 -30.3125 109.3125 Z M-4 179 C-4.29562367 184.32170494 -4.29562367 184.32170494 -2 189 C-2 185.7 -2 182.4 -2 179 C-2.66 179 -3.32 179 -4 179 Z M3 179 C3 182.3 3 185.6 3 189 C3.99 188.67 4.98 188.34 6 188 C6.33 185.03 6.66 182.06 7 179 C5.68 179 4.36 179 3 179 Z M-9 223 C-9 225.97 -9 228.94 -9 232 C-8.67 232 -8.34 232 -8 232 C-8 229.03 -8 226.06 -8 223 C-8.33 223 -8.66 223 -9 223 Z M-5 223 C-4 227 -4 227 -4 227 Z M5 223 C6 226 6 226 6 226 Z M8 223 C9 226 9 226 9 226 Z M-1 224 C-1 225.98 -1 227.96 -1 230 C-0.67 230 -0.34 230 0 230 C0 228.02 0 226.04 0 224 C-0.33 224 -0.66 224 -1 224 Z M12 224 C13 226 13 226 13 226 Z M5 228 C6 231 6 231 6 231 Z M8 228 C9 231 9 231 9 231 Z M12 228 C13 230 13 230 13 230 Z " fill="#1C2A42" transform="translate(152,33)"/>
<path d="M0 0 C3.88268998 1.31903231 6.26835515 2.88303871 9.125 5.8125 C9.78757813 6.47894531 10.45015625 7.14539063 11.1328125 7.83203125 C13.07818771 10.0907828 14.54192471 12.4053505 16 15 C16.40839111 14.54560547 16.81678223 14.09121094 17.23754883 13.62304688 C19.08748361 11.57427628 20.9497367 9.53711061 22.8125 7.5 C23.45509766 6.78457031 24.09769531 6.06914062 24.75976562 5.33203125 C25.69272461 4.31689453 25.69272461 4.31689453 26.64453125 3.28125 C27.21534424 2.65283203 27.78615723 2.02441406 28.37426758 1.37695312 C30 0 30 0 33 0 C33 1.65 33 3.3 33 5 C35.64 4.01 38.28 3.02 41 2 C40.855625 2.92039063 40.71125 3.84078125 40.5625 4.7890625 C39.26623462 13.62887226 38.75171226 22.04784768 39 31 C40.22784809 29.99440206 40.22784809 29.99440206 40.11352539 27.95874023 C40.10828857 27.08419189 40.10305176 26.20964355 40.09765625 25.30859375 C40.09443359 24.36435547 40.09121094 23.42011719 40.08789062 22.44726562 C40.07951172 21.45404297 40.07113281 20.46082031 40.0625 19.4375 C40.05798828 18.44041016 40.05347656 17.44332031 40.04882812 16.41601562 C40.03700007 13.94395151 40.02051849 11.47200482 40 9 C41.98 9 43.96 9 46 9 C45.85691406 10.16402344 45.85691406 10.16402344 45.7109375 11.3515625 C44.83529976 19.8839395 45.4717366 27.57560586 47 36 C45.72253906 35.95875 44.44507813 35.9175 43.12890625 35.875 C37.87562753 35.875 33.03982209 36.82832635 27.9375 38 C27.07189453 38.19078125 26.20628906 38.3815625 25.31445312 38.578125 C23.20776339 39.04369179 21.10359536 39.52064561 19 40 C19 39.34 19 38.68 19 38 C17.35 38 15.7 38 14 38 C14 38.66 14 39.32 14 40 C13.23558594 39.79503906 12.47117188 39.59007812 11.68359375 39.37890625 C3.04998537 37.20751738 -5.13746131 36.35548219 -14 36 C-13.855625 35.34515625 -13.71125 34.6903125 -13.5625 34.015625 C-11.9078308 25.88016808 -10.60232914 17.11371818 -13 9 C-11.02 9 -9.04 9 -7 9 C-7.33 6.69 -7.66 4.38 -8 2 C-2.25 3.875 -2.25 3.875 0 5 C0 3.35 0 1.7 0 0 Z M32 8 C32 9.98 32 11.96 32 14 C32.33 14 32.66 14 33 14 C33 12.02 33 10.04 33 8 C32.67 8 32.34 8 32 8 Z M0 10 C1 12 1 12 1 12 Z M-6 14 C-6 17.63 -6 21.26 -6 25 C-5.67 25 -5.34 25 -5 25 C-5 21.37 -5 17.74 -5 14 C-5.33 14 -5.66 14 -6 14 Z M1 19 C1 22.63 1 26.26 1 30 C3.97 30.99 6.94 31.98 10 33 C6.82460444 29.57421051 6.82460444 29.57421051 3 27 C2.40644386 24.35139573 2.25790731 21.70802678 2 19 C1.67 19 1.34 19 1 19 Z M31 24 C31 25.32 31 26.64 31 28 C30.195625 28.28875 29.39125 28.5775 28.5625 28.875 C25.8673532 29.73262568 25.8673532 29.73262568 25 32 C27.35171131 31.40138258 29.6859378 30.73075648 32 30 C32.33 29.34 32.66 28.68 33 28 C32.10836423 25.88316159 32.10836423 25.88316159 31 24 Z M-7 27 C-6 31 -6 31 -6 31 Z " fill="#1C2A42" transform="translate(136,150)"/>
</svg>
